<?xml version="1.0" encoding="utf-8"?>
<!-- Svg Vector Icons : http://www.onlinewebfonts.com/icon -->
<!DOCTYPE svg PUBLIC "-//W3C//DTD SVG 1.1//EN" "http://www.w3.org/Graphics/SVG/1.1/DTD/svg11.dtd">
<svg version="1.1" xmlns="http://www.w3.org/2000/svg" xmlns:xlink="http://www.w3.org/1999/xlink" x="0px" y="0px" viewBox="0 0 1000 1000" enable-background="new 0 0 1000 1000" xml:space="preserve">
<metadata> Svg Vector Icons : http://www.onlinewebfonts.com/icon </metadata>
<g><g transform="translate(0.000000,511.000000) scale(0.100000,-0.100000)"><path d="M7344.9,4751c-360.3-45.8-791.4-220.8-1066.4-431.1c-170.8-129.1-422.8-393.6-526.9-551.9c-127-189.5-258.3-487.4-308.2-691.5c-22.9-104.1-47.9-199.9-52.1-212.4c-6.2-20.8-343.6-27.1-1595.4-27.1c-893.5,0-1624.5-10.4-1672.4-20.8c-45.8-10.4-85.4-14.6-89.6-10.4c-4.2,2.1-25,187.4-47.9,408.2c-43.7,429-62.5,487.3-170.8,568.6c-56.2,41.7-85.4,43.7-756,50c-658.1,6.3-699.8,4.2-789.3-35.4c-77.1-33.3-104.1-60.4-137.5-139.6c-68.7-156.2-27.1-299.9,112.5-383.2c60.4-37.5,108.3-41.7,593.6-41.7c402,0,529-6.2,535.3-25c4.2-14.6,112.5-1058,239.5-2318.1c127.1-1260,241.6-2328.5,254.1-2374.3c27.1-110.4,104.1-254.1,177-341.6l60.4-70.8l-50-122.9c-47.9-118.7-47.9-139.5-41.7-574.8c6.2-445.7,6.2-454,64.6-570.7c33.3-68.7,102.1-158.3,162.5-212.4l102.1-91.6v-135.4c0-152,52.1-343.7,131.2-477c77.1-133.3,266.6-302,420.7-372.8c591.5-277,1270.4,85.4,1372.5,733.1l20.8,143.7h589.4h587.3l12.5-77.1c27.1-172.9,58.3-272.8,120.8-389.5c302-568.6,1076.8-679,1535-220.8c266.6,266.6,354.1,647.7,231.2,1003.9c-116.6,337.4-410.3,581.1-774.8,641.5c-279.1,47.9-585.3-47.9-797.7-249.9l-110.4-104.1h-797.7h-797.7l-108.3,102.1c-135.4,127-285.3,204.1-476.9,243.7c-289.5,62.5-554-8.3-831-220.8l-56.2-45.8v320.8c0,256.2,6.2,329.1,33.3,366.5l31.2,45.8h2336.8c2565.9,0,2465.9-4.2,2726.3,127.1c160.4,81.2,387.4,302,458.2,445.7c29.2,58.3,214.5,585.3,412.4,1174.6l362.4,1070.5l231.2,231.2c129.1,127,272.8,291.6,320.8,366.5c314.5,487.4,435.3,1045.5,345.7,1601.6c-158.3,978.9-926.8,1739.1-1905.7,1886.9C7751,4776,7553.2,4778.1,7344.9,4751z M8059.3,4140.8c574.8-156.2,1035.1-612.3,1201.7-1193.4c62.5-212.4,66.7-651.9,10.4-860.2C9111,1495.7,8640.4,1025,8048.9,864.7c-187.4-52.1-645.6-52.1-833.1,0c-591.5,160.4-1060.1,629-1222.6,1222.6c-52.1,187.4-52.1,643.6,0,833.1c168.7,626.9,672.7,1103.8,1305.9,1239.2C7472,4197,7888.5,4186.6,8059.3,4140.8z M5403.8,2093.5c45.8-272.8,181.2-599.8,352-860.2c110.4-168.7,397.8-460.3,576.9-583.2c506.1-349.9,1135.1-485.3,1722.4-372.8c66.7,14.6,125,20.8,129.1,14.6c12.5-12.5-493.6-1507.9-539.4-1597.4c-18.7-33.3-68.7-89.6-110.4-125c-160.4-133.3-58.3-129.2-2590.9-122.9l-2299.3,6.2l-64.6,45.8c-133.3,95.8-120.8,25-310.3,1872.4c-158.3,1553.7-172.9,1726.6-145.8,1778.6c16.7,33.3,41.7,62.5,56.2,68.7c14.6,6.3,741.4,12.5,1612,12.5l1587,2.1L5403.8,2093.5z M3496.1-3267.4c204.1-139.6,214.5-447.8,18.7-595.7c-95.8-72.9-277-89.6-391.5-37.5c-137.5,66.7-220.8,247.9-189.5,416.5c16.7,87.5,120.8,212.4,210.4,254.1C3235.7-3188.3,3406.5-3207,3496.1-3267.4z M6641-3273.7c220.8-166.6,202-485.3-35.4-618.5c-170.8-95.8-418.6-18.8-501.9,154.1c-68.8,145.8-27.1,354.1,89.6,447.8C6322.3-3186.2,6518.1-3177.9,6641-3273.7z"/><path d="M8142.6,3334.8c-89.6-25-135.4-79.1-435.3-518.6c-145.8-212.4-270.7-387.4-279.1-391.5c-8.3-2.1-66.7,43.7-129.1,100c-185.4,170.8-333.2,183.3-468.6,41.7c-72.9-75-93.7-231.2-45.8-324.9c50-95.8,516.5-543.6,583.2-560.3c91.7-25,222.9,2.1,279.1,56.2c43.7,39.6,260.3,349.9,762.3,1085.1c83.3,120.8,97.9,156.2,97.9,243.7c0,85.4-10.4,114.6-64.6,175c-35.4,41.7-97.9,83.3-139.5,95.8C8215.5,3359.8,8225.9,3359.8,8142.6,3334.8z"/></g></g>
</svg>