<?xml version="1.0" standalone="no"?>
<!DOCTYPE svg PUBLIC "-//W3C//DTD SVG 20010904//EN"
 "http://www.w3.org/TR/2001/REC-SVG-20010904/DTD/svg10.dtd">
<svg version="1.0" xmlns="http://www.w3.org/2000/svg"
 width="500.000000pt" height="500.000000pt" viewBox="0 0 500.000000 500.000000"
 preserveAspectRatio="xMidYMid meet">
<metadata>
Created by potrace 1.14, written by Peter Selinger 2001-2017
</metadata>
<g transform="translate(0.000000,500.000000) scale(0.100000,-0.100000)"
fill="#000000" stroke="none">
<path d="M443 3028 c-254 -39 -444 -277 -428 -539 23 -368 406 -585 745 -422
74 36 179 141 219 222 189 373 -123 802 -536 739z m240 -167 c131 -64 209
-180 213 -317 10 -294 -282 -481 -546 -348 -221 111 -267 412 -90 592 79 80
159 111 277 108 69 -2 93 -8 146 -35z"/>
<path d="M2450 2968 c-20 -22 -21 -30 -18 -353 l3 -330 27 -57 c34 -74 107
-147 183 -183 53 -26 71 -29 155 -30 104 0 154 14 217 62 62 47 75 101 32 135
-29 25 -49 23 -95 -10 -53 -38 -80 -48 -139 -51 -92 -4 -182 50 -221 133 -22
46 -24 64 -24 199 l0 147 165 0 c152 0 167 2 185 20 11 11 20 33 20 50 0 17
-9 39 -20 50 -18 18 -33 20 -185 20 l-165 0 0 78 c0 97 -6 117 -36 131 -37 17
-61 13 -84 -11z"/>
<path d="M1315 2761 c-107 -28 -206 -116 -246 -219 -20 -52 -22 -77 -25 -266
-2 -207 -2 -209 22 -233 29 -29 67 -30 93 -2 18 19 20 39 23 228 2 171 6 211
20 236 49 88 126 131 216 121 79 -9 137 -48 175 -121 19 -36 22 -61 27 -248 5
-192 7 -210 24 -223 29 -21 64 -17 90 9 22 22 22 26 20 227 -1 166 -5 215 -19
255 -50 144 -172 235 -320 241 -38 2 -83 -1 -100 -5z"/>
<path d="M1935 2751 c-106 -48 -153 -159 -115 -270 19 -57 46 -91 100 -124 30
-19 54 -23 163 -27 126 -5 129 -6 153 -33 30 -36 30 -68 0 -104 l-24 -28 -194
-5 c-106 -3 -198 -8 -204 -12 -37 -24 -20 -112 23 -123 13 -3 106 -5 206 -5
197 2 228 8 280 58 96 91 93 253 -6 337 -52 45 -90 55 -209 55 -110 0 -142 10
-159 51 -15 37 2 82 37 98 15 7 86 11 178 11 141 0 154 2 171 20 25 27 23 86
-2 105 -14 11 -58 14 -188 14 -144 1 -176 -2 -210 -18z"/>
<path d="M4103 2755 c-106 -32 -194 -109 -243 -209 -41 -84 -43 -101 -41 -378
1 -94 4 -111 21 -128 25 -25 61 -26 91 -2 22 18 22 24 24 204 1 180 2 187 29
241 42 86 136 147 226 147 61 0 95 68 59 115 -17 21 -28 25 -72 24 -29 0 -71
-6 -94 -14z"/>
<path d="M4483 2750 c-197 -70 -300 -271 -243 -474 29 -105 136 -211 249 -246
160 -50 356 9 337 102 -12 59 -53 69 -141 34 -99 -38 -212 -2 -272 88 -18 27
-33 55 -33 62 0 12 48 14 280 14 272 0 281 1 301 21 19 19 21 29 15 83 -13
126 -97 243 -216 300 -82 39 -195 46 -277 16z m233 -148 c49 -26 89 -67 108
-114 9 -21 16 -40 16 -43 0 -3 -105 -5 -234 -5 l-233 0 4 23 c6 30 52 96 84
119 68 51 178 60 255 20z"/>
<path d="M3303 2741 c-165 -57 -272 -217 -257 -386 21 -257 294 -419 527 -312
292 133 298 537 10 679 -81 40 -198 48 -280 19z m203 -139 c205 -84 201 -361
-5 -436 -186 -67 -363 103 -305 292 38 125 187 194 310 144z"/>
</g>
</svg>
